<?xml version="1.0" encoding="utf-8"?>
<!-- Generator: Adobe Illustrator 24.0.0, SVG Export Plug-In . SVG Version: 6.00 Build 0)  -->
<svg version="1.1" xmlns="http://www.w3.org/2000/svg" xmlns:xlink="http://www.w3.org/1999/xlink" x="0px" y="0px"
	 viewBox="0 0 930 788" style="enable-background:new 0 0 930 788;" xml:space="preserve">
<style type="text/css">
	.st0{fill:#F1F1F1;}
	.st1{fill:#2F2E41;}
	.st2{fill:#9F616A;}
	.st3{fill:#A0616A;}
	.st4{fill:none;stroke:#3F3D56;stroke-width:2;stroke-miterlimit:10;}
	.st5{fill:#3F3D56;}
	.st6{fill:#FF6584;}
	.st7{fill:#00B0FF;}
	.st8{opacity:0.3;fill:#00B0FF;enable-background:new    ;}
	.st9{fill:#33313F;}
	.st10{fill:#65617D;}
	.st11{fill:#DB8B8B;}
	.st12{opacity:0.1;enable-background:new    ;}
	.st13{fill:#2E3037;}
	.st14{fill:#35323E;}
</style>
<g id="effd0595-b14c-4c7e-b56f-e463e9379f7d">
	<title>process</title>
	<circle class="st0" cx="748.2" cy="49.5" r="14.8"/>
	<circle class="st0" cx="661.2" cy="620.5" r="14.8"/>
	<circle class="st0" cx="294.2" cy="191.5" r="14.8"/>
	<ellipse class="st0" cx="206.8" cy="757.5" rx="206.8" ry="23"/>
	<circle class="st1" cx="98.9" cy="254.4" r="36.8"/>
	<polygon class="st2" points="59.2,715.6 52.2,745.6 69.2,745.6 76.2,711.6 	"/>
	<polygon class="st2" points="141.2,715.6 141.2,743.6 158.2,745.6 158.2,715.6 	"/>
	<path class="st2" d="M54.2,397.6c0,0,2,43,4,46s20,46,20,46l9-28c0,0-14-23-12-36s0.7-29,0.7-29L54.2,397.6z"/>
	<circle class="st2" cx="111.2" cy="265.6" r="28"/>
	<path class="st2" d="M88.2,268.6c0,0,1,40-6,46s40,1,40,1s-10-28-2-34S88.2,268.6,88.2,268.6z"/>
	<path class="st1" d="M125.2,313.6c0,0-6-11-14-10s-34,3-35,5s-4,9-6,11s-17,5-18,17s36,85,36,85s-5,17-4,21s-5,16-4,21s-15,35-7,74
		v63c0,0-27,109-19,117s35,3,40,0s26-154,26-154l10-51l1,112c0,0-2,94,5,97s34,4,36-2c1.6-4.7,9.2-129.2,12.5-183.8
		c1.1-18.8-0.3-37.7-4.4-56.2c-4.2-18.9-10.2-41.1-17.1-50.1c-13-17-21-71-21-71l17-31c0,0-10-10-16-10S125.2,313.6,125.2,313.6z"/>
	<path class="st1" d="M58.2,329.6l-5.3,3.6c0,0-3.7,64.4-0.7,68.4s23.9,2,25.4-1.5S58.2,329.6,58.2,329.6z"/>
	<path class="st2" d="M140.5,389.5c0,0,0.8,42,6.8,54c6,12,27.8,62.1,27.8,62.1s-1.5,55,9.7,41.6c11.2-13.5,4.3-45.5,4.3-45.5
		l-18.7-74.1c0,0-9.9-33-8.8-43C162.6,374.6,140.5,389.5,140.5,389.5z"/>
	<path class="st1" d="M158.2,727.4c0,0,1-0.8,4,2.2s11,7,10,18s-7,13-7,13v-3h-3v5c0,0-5,16-28,6c0,0-1-8,0-13s1-29,4-28s11,2,13,6
		S159.2,736.2,158.2,727.4z"/>
	<path class="st1" d="M55.2,728.4c0,0-1-0.8-4,2.2s-11,7-10,18s7,13,7,13v-3h3v5c0,0,5,16,28,6c0,0,1-8,0-13s-1-29-4-28s-11,2-13,6
		C60.2,738.6,54.2,737.2,55.2,728.4z"/>
	<path class="st1" d="M145.2,324.6l14,3c0,0,0,22,4,31s11,30,8,31s-31,15-33,7S131.2,324.6,145.2,324.6z"/>
	<circle class="st1" cx="59" cy="206" r="36.8"/>
	<path class="st1" d="M27.3,236.4c16.5,11.9,39.5,8.2,51.4-8.3c2.4-3.4,4.3-7.1,5.4-11.1C81.6,237.3,63.2,251.6,43,249
		c-20.2-2.5-34.5-20.9-31.9-41.1c0.3-2,0.7-4,1.2-5.9C10.7,215.4,16.4,228.6,27.3,236.4z"/>
	<circle class="st1" cx="89.1" cy="260.6" r="27"/>
	<ellipse class="st1" cx="111.8" cy="250.4" rx="23.9" ry="18.7"/>
	<ellipse class="st3" cx="118.2" cy="269.6" rx="4.5" ry="8"/>
	
		<rect x="385.7" y="36.9" transform="matrix(0.2876 -0.9578 0.9578 0.2876 136.5544 791.3649)" class="st0" width="429" height="534"/>
	<line class="st4" x1="611.2" y1="141.9" x2="732.3" y2="190.9"/>
	<polygon class="st5" points="614.2,152 616.1,151.1 611.9,142.2 621.1,138.7 620.4,136.8 609.2,141.1 	"/>
	<polygon class="st5" points="723.1,196 722.4,194.1 731.6,190.6 727.4,181.6 729.2,180.8 734.3,191.7 	"/>
	<circle class="st5" cx="671.7" cy="166.4" r="11"/>
	<line class="st4" x1="601.9" y1="481.4" x2="713.5" y2="413.4"/>
	<polygon class="st5" points="611.8,484.9 612.3,482.9 602.6,481 605.3,471.5 603.3,470.9 600.1,482.5 	"/>
	<polygon class="st5" points="712.1,423.8 710.2,423.3 712.9,413.8 703.2,411.8 703.6,409.9 715.4,412.3 	"/>
	<circle class="st5" cx="657.7" cy="447.4" r="11"/>
	<polygon class="st5" points="453.5,272.7 455,274 461.7,266.8 468.4,274 469.9,272.7 461.7,263.9 	"/>
	<polygon class="st5" points="453.6,390.1 455,388.7 461.8,395.9 468.5,388.7 469.9,390.1 461.8,398.9 	"/>
	<rect x="369" class="st5" width="182" height="226"/>
	<path class="st6" d="M448.6,84.1h-41.3c-2.8-16.3-2.8-33,0-49.2h41.3C444,51,444,68,448.6,84.1z"/>
	<path class="st7" d="M471.4,109.1h41.3c2.8-16.3,2.8-33,0-49.2h-41.3C476,76,476,93,471.4,109.1z"/>
	<path class="st7" d="M432.4,191.1h41.3c2.8-16.3,2.8-33,0-49.2h-41.3C437,158,437,175,432.4,191.1z"/>
	<rect x="748" y="215" class="st5" width="182" height="226"/>
	<rect x="774" y="263" class="st7" width="130" height="6"/>
	<rect x="774" y="284" class="st7" width="130" height="6"/>
	<rect x="774" y="305" class="st7" width="130" height="6"/>
	<rect x="774" y="326" class="st7" width="130" height="6"/>
	<rect x="774" y="347" class="st7" width="130" height="6"/>
	<rect x="805" y="369" class="st7" width="68" height="24"/>
	<rect x="385" y="447" class="st5" width="182" height="226"/>
	<rect x="411.3" y="572.8" class="st7" width="130" height="6"/>
	<rect x="411.3" y="593.8" class="st7" width="130" height="6"/>
	<rect x="411.3" y="614.8" class="st7" width="130" height="6"/>
	<rect x="411.3" y="635.8" class="st7" width="130" height="6"/>
	<path class="st8" d="M451.1,527.4h-41.3c-2.8-16.3-2.8-33,0-49.2h41.3C446.5,494.3,446.5,511.4,451.1,527.4z"/>
	<rect x="468.3" y="482.8" class="st8" width="76" height="5"/>
	<rect x="468.3" y="500.8" class="st8" width="76" height="5"/>
	<rect x="468.3" y="518.8" class="st8" width="76" height="5"/>
	<rect x="468.3" y="536.8" class="st8" width="76" height="5"/>
</g>
<g id="Layer_2">
	<polygon class="st9" points="354.8,472.4 358.1,469.3 355.1,469.2 353.6,471.6 	"/>
	<polygon class="st10" points="330.6,494.4 334.2,489.8 335,489 345.9,477.5 349.6,473.7 351.3,473.5 353.8,471 355.3,472.3 
		352.8,475.1 352.9,476.6 349.1,480.7 338.4,492.3 337.7,493.1 333.4,497 	"/>
	<polygon class="st9" points="335,489 345.9,477.5 349.1,480.7 338.4,492.3 	"/>
	<path class="st11" d="M254.4,719.3l-3,9l9.8,9.8l32.4,7.5l23.4-2.3l-1.5-8.3l0,0c-0.9-3.6-3.8-6.4-7.4-7.3
		c-9.6-2.3-27.9-7.4-31.8-14.5L254.4,719.3z"/>
	<path class="st12" d="M254.4,719.3l-3,9l9.8,9.8l32.4,7.5l23.4-2.3l-1.5-8.3l0,0c-0.9-3.6-3.8-6.4-7.4-7.3
		c-9.6-2.3-27.9-7.4-31.8-14.5L254.4,719.3z"/>
	<path class="st13" d="M309.4,741.1l-4.5-6l4.5-7c0,0,13.5,5.5,19.6,4.7s9,9.8-2.3,12.8s-75.3,0-75.3,0s-11.3-5.3,0-19.6l9.8,7.5
		c0,0,16.6,9,24.9,7.5H309.4z"/>
	<path class="st11" d="M329.7,753.9l-23.4,2.3l-32.4-7.5l-9.8-9.8l0.8-2.4l1.1-3.4l1.1-3.3l21.8-6c1.1,1.8,2.6,3.3,4.4,4.4
		c7.1,4.8,19.8,8.4,27.3,10.1c0.3,0.1,0.6,0.2,0.9,0.3c3.2,1.1,5.7,3.7,6.5,7L329.7,753.9z"/>
	<path class="st12" d="M329.7,753.9l-23.4,2.3l-32.4-7.5l-9.8-9.8l0.8-2.4l9,6.9c0,0,16.6,9,24.9,7.5h23.3l-4.5-6l4.1-6.3
		c3.2,1.1,5.7,3.7,6.5,7L329.7,753.9z"/>
	<path class="st13" d="M322.1,751.6l-4.5-6l4.5-7c0,0,13.6,5.5,19.6,4.7s9,9.8-2.2,12.8s-75.3,0-75.3,0s-11.3-5.3,0-19.6l9.8,7.5
		c0,0,16.6,9,24.9,7.5L322.1,751.6z"/>
	<path class="st11" d="M303.3,314.7c0,0-36.1,3.8-30.9-11.3c1.5-4.3,1.9-8.8,1.1-13.3c-0.9-5.5-3.1-10.8-6.4-15.3l33.9,5.3
		c-2,3.4-3.6,7.1-4.6,10.9C292.4,307,303.3,314.7,303.3,314.7z"/>
	<path class="st14" d="M241.6,486.5c0,0,0.8,32.4,8.3,48.2l1.5,45.9c0,0-2.3,42.2-6.8,50.5s9.8,78.3,9.8,78.3v12
		c0,0,24.1,9,30.9-1.5l-6.8-89.6l3-124.3L241.6,486.5z"/>
	<path class="st12" d="M241.6,486.5c0,0,0.8,32.4,8.3,48.2l1.5,45.9c0,0-2.3,42.2-6.8,50.5s9.8,78.3,9.8,78.3v12
		c0,0,24.1,9,30.9-1.5l-6.8-89.6l3-124.3L241.6,486.5z"/>
	<path class="st7" d="M226.5,382.5l-4.5,12l-3.8,25.6c-1,7.2,1.5,14.5,6.8,19.6c9,9,21.1,27.9,21.1,27.9l14.3-42.9
		c0,0-14.3-2.3-12-12s1.5-27.9,1.5-27.9L226.5,382.5z"/>
	<path class="st12" d="M293.5,728.2c-9.7,15.2-24.7,6.6-27.4,4.9l1.1-3.3l21.8-6C290.1,725.6,291.7,727.1,293.5,728.2z"/>
	<path class="st14" d="M323.7,515.8c-0.8,10.5-13.6,49-13.6,49l-9,31.6c-6.5,22.3-9.8,45.5-10,68.7c0,7.7-0.7,15.7-2.9,21.7
		c-6,16.6,6,39.2,6,39.2c-10.5,18.8-28.6,6-28.6,6v-12c0,0-14.3-65.6-10.5-78.4c3.8-12.8,5.3-47.5,5.3-47.5v-62.5
		c-12.1-12-19.4-28-20.7-45c-0.2-2.5-0.3-5.1-0.4-7.8c-0.6-17,11-36.9,15.5-44c1.1-1.7,1.8-2.7,1.8-2.7l66.5,26.4l0.1,0.1v2.6v5.7
		L323.7,515.8z"/>
	<path class="st12" d="M301.1,280.1c-2,3.4-3.6,7.1-4.6,10.9c-7.4,2.8-15.7,2.5-22.9-0.8c-0.9-5.5-3.1-10.8-6.4-15.3L301.1,280.1z"
		/>
	
		<ellipse transform="matrix(0.1602 -0.9871 0.9871 0.1602 -18.4236 502.3572)" class="st11" cx="286" cy="262" rx="29.4" ry="29.4"/>
	<path class="st12" d="M323.7,466.9l-0.3,0.1c-31.6,6.5-71.2-26.4-71.2-26.4c1.1-1.8,2-3.7,2.7-5.6c1.1-1.7,1.8-2.7,1.8-2.7
		l66.5,26.4l0.2,2.6L323.7,466.9z"/>
	<path class="st7" d="M315.4,314c0,0-42.2-25.6-55.7-15.1L240.8,323c0,0-12.1,3.8-9.8,27.9l-9,43.7l27.1,6.8c0,0,15.8,15.1,3,36.9
		c0,0,39.9,33.1,71.6,26.4l-2.3-35.4c0,0-6.8-19.6,5.3-37.7s0.8-35.4-10.5-42.2C316.1,349.4,310.9,320.8,315.4,314z"/>
	<path class="st11" d="M317.6,467.6c0,0,15.8,3,23.4,15.1c2.2,3.6,4.8,6.9,7.9,9.8c2.4,2.3,2.6,6,0.3,8.5c-0.4,0.4-0.8,0.8-1.3,1
		c-6,3.6-15.7,5.8-28-4.3C298.8,480.4,317.6,467.6,317.6,467.6z"/>
	<path class="st12" d="M294.3,328.3c0,0-15.1-1.5-18.8,37.7s-9.8,48.2-9.8,48.2s-3.8,20.3,5.3,32.4s26.4,37.8,26.4,37.8
		s18.8,5.3,22.6-13.6L296.6,427c0,0-3.8-15.1,5.3-25.6S317.6,320.8,294.3,328.3z"/>
	<path class="st7" d="M295.8,326c0,0-15.1-1.5-18.8,37.7s-9.8,48.2-9.8,48.2s-3.8,20.4,5.3,32.4s26.4,37.7,26.4,37.7
		s18.8,5.3,22.6-13.5l-23.4-43.7c0,0-3.8-15.1,5.3-25.6S319.1,318.5,295.8,326z"/>
	<path class="st12" d="M308.2,354.3c0,0,1.5,23.4-5.3,36.2c-6.8,12.8-6.8,29.4,0,38.4"/>
	<path class="st12" d="M312,325.7c0,0-6-6-23.4-6.8s-24.9-6-24.9-6"/>
	<path class="st12" d="M270.1,224c-4.6,0.6-9.8,2.1-11.5,6.4c-0.6,1.6-0.6,3.3-1,5c-1.7,6.6-9.1,9.6-13.7,14.7
		c-4,4.4-5.8,10.5-7.1,16.3c-3.8,16.8-4.7,34.1-2.7,51.1c1.5,12.5,4.5,24.8,5.3,37.3s-0.7,25.8-7.6,36.3c-3,4.5-6.8,8.5-8.9,13.5
		c4.3,3.5,10.3,4,15.8,4.2c6.5,0.2,13,0.2,19.4,0c3.4-0.1,7-0.3,9.9-2.1c2.2-1.4,4-3.3,5.2-5.6c3.7-6.3,4.6-13.9,4.5-21.1
		s-1.3-14.5-1.5-21.9c-0.1-4,0.2-8.2,2.5-11.5c1.6-2.4,4.2-3.9,6.3-5.8c8.1-7.1,10.8-18.6,11.1-29.4s-1.5-21.6-0.6-32.3
		c0.4-4.2,1.9-9.2,6.1-10.1c1.3-0.3,2.7,0,3.9-0.5c3.3-1.3,3-6,3.9-9.4c1.1-3.9,4.4-6.8,5.3-10.7c2.2-9.1-9.4-20-17-23.2
		C290,222.3,278.3,223,270.1,224z"/>
	<path class="st14" d="M269.3,222.5c-4.6,0.6-9.8,2.1-11.5,6.4c-0.4,1.6-0.8,3.3-1,5c-1.7,6.6-9.1,9.6-13.7,14.7
		c-4,4.4-5.8,10.4-7.1,16.3c-3.7,16.8-4.6,34.1-2.6,51.2c1.5,12.5,4.5,24.8,5.3,37.3s-0.7,25.8-7.6,36.3c-3,4.5-6.8,8.5-8.9,13.5
		c4.3,3.5,10.3,4,15.8,4.2c6.5,0.2,13,0.2,19.4,0c3.4-0.1,7-0.3,9.9-2.1c2.2-1.4,4-3.3,5.2-5.6c3.7-6.3,4.6-13.9,4.5-21.1
		s-1.3-14.5-1.5-21.9c-0.1-4,0.2-8.2,2.5-11.5c1.7-2.4,4.2-3.9,6.3-5.8c8.1-7.1,10.8-18.6,11.1-29.4s-1.5-21.6-0.6-32.3
		c0.4-4.2,1.9-9.2,6.1-10.1c1.3-0.3,2.7,0,3.9-0.5c3.3-1.3,3-5.9,3.9-9.4c1.1-3.9,4.3-6.8,5.3-10.7c2.2-9.1-9.4-20-17-23.2
		C289.3,220.8,277.5,221.5,269.3,222.5z"/>
</g>
</svg>
