<?xml version="1.0" encoding="utf-8"?>
<!-- Generator: Adobe Illustrator 24.0.0, SVG Export Plug-In . SVG Version: 6.00 Build 0)  -->
<svg version="1.1" id="a36694c7-9e7e-4fa0-bd34-1ff06c34a584"
	 xmlns="http://www.w3.org/2000/svg" xmlns:xlink="http://www.w3.org/1999/xlink" x="0px" y="0px" viewBox="0 0 1089.9 822.5"
	 style="enable-background:new 0 0 1089.9 822.5;" xml:space="preserve">
<style type="text/css">
	.st0{fill:#00B0FF;}
	.st1{fill:#F2F2F2;}
	.st2{fill:#3F3D56;}
	.st3{fill:#2F2E41;}
	.st4{fill:#FFB8B8;}
	.st5{fill:#D0CDE1;}
</style>
<title>certificate</title>
<path class="st0" d="M933.7,445.6c0,126.5-74.2,238.4-187.9,306.6c-72.9,43.7-162.1,69.4-258.3,69.4
	c-128.2,0-226.1-48.5-299.7-122.7C120,630.4,72.8,540,41.3,445.6C-99.2,23.8,135.5-91.3,487.5,69.6
	C711.7,172.1,933.7,237.9,933.7,445.6z"/>
<path class="st1" d="M745.9,224.8v528.4c-72.9,43.7-162.1,69.4-258.3,69.4c-128.2,0-226.1-48.5-299.7-122.7v-475L745.9,224.8z"/>
<path class="st2" d="M241.5,482.2c29.2-9.3,59.5-14.7,90.2-16.1c15.3-0.7,30.7-0.1,46,1.8c15.1,2,30,5.2,44.6,9.6
	c14.4,4.2,28.6,9,43,13.3c14.6,4.5,29.4,8.1,44.5,10.8c14.9,2.7,30,4.5,45.2,5.4c15,0.9,30.2,1,45.1-0.6c14-1.3,27.7-4.8,40.6-10.3
	c12.1-5.3,23.2-12.4,33-21.2c2.4-2.2,4.8-4.5,7.1-6.8c1.3-1.4-0.8-3.5-2.1-2.1c-19.1,20-44.3,32.4-71.5,36.5
	c-14.9,2.3-30,2.4-45,1.8c-15.3-0.6-30.6-2.1-45.7-4.6c-14.9-2.5-29.7-5.8-44.3-10.1c-14.3-4.1-28.4-8.9-42.6-13.2
	c-14.4-4.5-29-8-43.9-10.5c-14.9-2.3-30-3.3-45-3.1c-30.1,0.5-60,4.9-89,13.2c-3.6,1-7.3,2.1-10.9,3.2
	C238.9,479.9,239.7,482.8,241.5,482.2L241.5,482.2z"/>
<path class="st2" d="M241.5,558.2c29.2-9.3,59.5-14.7,90.2-16.1c15.3-0.7,30.7-0.1,46,1.8c15.1,2,30,5.2,44.6,9.6
	c14.4,4.2,28.6,9,43,13.3c14.6,4.5,29.4,8.1,44.5,10.8c14.9,2.7,30,4.5,45.2,5.4c15,0.9,30.2,1,45.1-0.6c14-1.3,27.7-4.8,40.6-10.3
	c12.1-5.3,23.2-12.4,33-21.2c2.4-2.2,4.8-4.5,7.1-6.8c1.3-1.4-0.8-3.5-2.1-2.1c-19.1,20-44.3,32.4-71.5,36.5
	c-14.9,2.3-30,2.4-45,1.8c-15.3-0.6-30.6-2.1-45.7-4.6c-14.9-2.5-29.7-5.8-44.3-10.1c-14.3-4.1-28.4-8.9-42.6-13.2
	c-14.4-4.5-29-8-43.9-10.5c-14.9-2.3-30-3.3-45-3.1c-30.1,0.5-60,4.9-89,13.2c-3.6,1-7.3,2.1-10.9,3.2
	C238.9,555.9,239.7,558.8,241.5,558.2L241.5,558.2z"/>
<path class="st2" d="M241.5,413.2c29.2-9.3,59.5-14.7,90.2-16.1c15.3-0.7,30.7-0.1,46,1.8c15.1,2,30,5.2,44.6,9.6
	c14.4,4.2,28.6,9,43,13.3c14.6,4.5,29.4,8.1,44.5,10.8c14.9,2.7,30,4.5,45.2,5.4c15,0.9,30.2,1,45.1-0.6c14-1.3,27.7-4.8,40.6-10.3
	c12.1-5.3,23.2-12.4,33-21.2c2.4-2.2,4.8-4.5,7.1-6.8c1.3-1.4-0.8-3.5-2.1-2.1c-19.1,20-44.3,32.4-71.5,36.5
	c-14.9,2.3-30,2.4-45,1.8c-15.3-0.6-30.6-2.1-45.7-4.6c-14.9-2.5-29.7-5.8-44.3-10.1c-14.3-4.1-28.4-8.9-42.6-13.2
	c-14.4-4.5-29-8-43.9-10.5c-14.9-2.3-30-3.3-45-3.1c-30.1,0.5-60,4.9-89,13.2c-3.6,1-7.3,2.1-10.9,3.2
	C238.9,410.9,239.7,413.8,241.5,413.2L241.5,413.2z"/>
<path class="st2" d="M238,282.7c7.3-3.2,15.6-2.7,23.1-0.8c8.1,2,15.8,5.5,23.8,7.9c14.3,4.3,29.5,4.6,44,0.8
	c8.1-2.1,15.9-5.4,23-9.9c1.6-1,0.1-3.6-1.5-2.6c-12.7,7.9-27.4,12.1-42.3,12.1c-7.5,0-15-1.1-22.2-3.3c-7.9-2.4-15.5-5.8-23.6-7.9
	c-8.5-2.2-17.7-2.6-25.8,1C234.7,280.9,236.2,283.5,238,282.7L238,282.7z"/>
<circle class="st2" cx="460.9" cy="696.8" r="46"/>
<path class="st3" d="M770.7,624.7L753.2,786h121l5.3-12.3l7,12.3h114c0,0-8.8-166.6-24.5-171.8S770.7,624.7,770.7,624.7z"/>
<circle class="st4" cx="874.2" cy="209.2" r="61.4"/>
<path class="st4" d="M839.1,247.7c0,0,5.3,56.1,0,59.6s84.2,1.8,84.2,1.8s-12.3-50.8,0-75.4L839.1,247.7z"/>
<path class="st5" d="M870.7,295.1c0,0,45.1,7,48.9-7l23,31.6l1.8,315.6c0,0-187.6,22.8-194.6-14s71.9-327.9,71.9-327.9l19.9-1.3
	C841.4,292,867.2,295.1,870.7,295.1z"/>
<path class="st2" d="M841.1,277.6l-30.1,10.4l-85.9,21l3.5,210.4c0,0-73.6,210.4-40.3,226.2s80.6-21,94.7-47.3s63.1-391,63.1-398
	S841.1,277.6,841.1,277.6z"/>
<path class="st2" d="M918.4,277.6l11.9,10.4l84.2,38.6l-42.1,212.1c0,0,56.1,192.9,35.1,203.4c-21,10.5-52.6,40.3-59.6,22.8
	S899.5,297,918.4,277.6z"/>
<path class="st4" d="M967.1,558.1c0,0-78.9-33.3-80.6-3.5s89.4,50.8,89.4,42.1S967.1,558.1,967.1,558.1z"/>
<path class="st4" d="M774.2,545.8c0,0,91.2,68.4,56.1,85.9s-80.6-61.4-80.6-61.4L774.2,545.8z"/>
<path class="st3" d="M901.4,119.3c0.6-1.2,1.9-2,3.3-1.9c-28.1-1.7-57.7,1.6-81.2,17.1c-6.6,4.3-12.7,9.6-20.2,12.1l6.1,4.8
	l-7.3,2.2l10.7,6.9c-2.2,2.5-5.6,3.6-8.8,3c4.6,1.4,8.1,5.5,9.8,10s2.1,9.4,2.3,14.3c1.8-7,9.4-11.1,16.6-11.5s14.2,2,21.2,3.7
	c15.2,3.7,31.1,4.3,46.5,1.8c-5.3,10.5-0.8,23.1,3.6,34l8.9,21.8c4.9,0.5,8.4-4.4,12.2-7.7c3.4-3-10.1,23.4-8,22.4
	c2.7-1.3,31.4-32.9,32.8-35.6c6.1-12.2,9.8-25.8,9.3-39.5s-5.5-27.3-15-37.2c-6.4-6.7-15.2-7.9-21.7-13.5c-2.6-2.2-2.6-3.9-6.1-5.2
	C915.2,120.6,901.6,118.8,901.4,119.3z"/>
<path class="st2" d="M737.4,314.4l-12.3-5.3L627,470.4c0,0-17.5,42.1,14,61.4s105.2,77.1,105.2,77.1l42.1-64.9
	c0,0-85.9-40.3-80.6-56.1s33.3-57.9,33.3-57.9L737.4,314.4z"/>
<path class="st2" d="M991.6,323.1l22.8,3.5c0,0,94.7,185.8,71.9,220.9s-115.7,84.2-115.7,84.2s-1.8-57.9-17.5-78.9l54.4-21
	L977.6,416L991.6,323.1z"/>
</svg>
